<svg xmlns="http://www.w3.org/2000/svg" viewBox="0 0 900 620" font-family="Arial, Helvetica, sans-serif">
  <defs>
    <pattern id="brick" width="12" height="8" patternUnits="userSpaceOnUse">
      <rect width="12" height="8" fill="#e8daef"/>
      <line x1="0" y1="4" x2="12" y2="4" stroke="#d2b4de" stroke-width="0.5"/>
    </pattern>
  </defs>

  <rect width="900" height="620" fill="#fafafa"/>
  <text x="450" y="36" text-anchor="middle" font-size="22" font-weight="bold" fill="#2c3e50">Schemat bioró|norodno[ci  budki lgowe i drzewa li[ciaste</text>
  <text x="450" y="58" text-anchor="middle" font-size="13" fill="#666">Fragment elewacji poBudniowej i ogrodu prywatnego</text>

  <!-- Sky -->
  <rect x="60" y="75" width="500" height="280" fill="#d6eaf8" rx="4"/>

  <!-- Ground / garden -->
  <rect x="60" y="355" width="500" height="120" fill="#abebc6" rx="0"/>
  <rect x="60" y="355" width="500" height="15" fill="#c8b89a"/>

  <!-- House south facade -->
  <rect x="120" y="150" width="380" height="205" fill="url(#brick)" stroke="#2c3e50" stroke-width="2"/>
  <polygon points="120,150 310,90 500,150" fill="#fadbd8" stroke="#2c3e50" stroke-width="2"/>

  <!-- Large south windows -->
  <rect x="160" y="200" width="90" height="120" fill="#85c1e9" stroke="#2980b9" stroke-width="2"/>
  <rect x="280" y="200" width="90" height="120" fill="#85c1e9" stroke="#2980b9" stroke-width="2"/>
  <rect x="400" y="220" width="70" height="100" fill="#85c1e9" stroke="#2980b9" stroke-width="2"/>
  <text x="310" y="340" text-anchor="middle" font-size="11" fill="#1a5276">elewacja poBudniowa</text>

  <!-- Deciduous tree -->
  <ellipse cx="90" cy="310" rx="45" ry="55" fill="#27ae60" opacity="0.9"/>
  <ellipse cx="75" cy="280" rx="30" ry="35" fill="#2ecc71" opacity="0.7"/>
  <ellipse cx="105" cy="285" rx="28" ry="32" fill="#229954" opacity="0.7"/>
  <rect x="84" y="330" width="12" height="40" fill="#6e4c2a"/>
  <text x="90" y="395" text-anchor="middle" font-size="11" fill="#1e8449" font-weight="bold">klon / lipa</text>
  <text x="90" y="410" text-anchor="middle" font-size="10" fill="#1e8449">(li[ciasty)</text>

  <!-- Summer shade -->
  <path d="M 90 255 Q 200 180 310 200" fill="none" stroke="#27ae60" stroke-width="1.5" stroke-dasharray="4,3" opacity="0.6"/>
  <text x="200" y="175" font-size="10" fill="#1e8449">cieD latem ’ mniej przegrzewania</text>

  <!-- Winter sun through bare branches -->
  <circle cx="55" cy="120" r="18" fill="#f9e79f" stroke="#f39c12" stroke-width="1.5"/>
  <line x1="73" y1="130" x2="200" y2="250" stroke="#f39c12" stroke-width="1.5" stroke-dasharray="3,2" opacity="0.7"/>
  <text x="55" y="95" text-anchor="middle" font-size="9" fill="#d68910">zima: sBoDce</text>
  <text x="55" y="108" text-anchor="middle" font-size="9" fill="#d68910">przenika</text>

  <!-- Bird nesting boxes on facade -->
  <g>
    <rect x="175" y="175" width="22" height="28" fill="#a0522d" stroke="#6e3c14" stroke-width="1" rx="2"/>
    <circle cx="186" cy="192" r="5" fill="#2c3e50"/>
    <text x="186" y="218" text-anchor="middle" font-size="8" fill="#fff">1</text>

    <rect x="355" y="175" width="22" height="28" fill="#a0522d" stroke="#6e3c14" stroke-width="1" rx="2"/>
    <circle cx="366" cy="192" r="5" fill="#2c3e50"/>
    <text x="366" y="218" text-anchor="middle" font-size="8" fill="#fff">2</text>

    <rect x="430" y="165" width="22" height="28" fill="#a0522d" stroke="#6e3c14" stroke-width="1" rx="2"/>
    <circle cx="441" cy="182" r="5" fill="#2c3e50"/>
    <text x="441" y="208" text-anchor="middle" font-size="8" fill="#fff">3</text>
  </g>

  <!-- Bird on tree box -->
  <rect x="68" y="250" width="18" height="22" fill="#a0522d" stroke="#6e3c14" stroke-width="1" rx="2"/>
  <circle cx="77" cy="262" r="4" fill="#2c3e50"/>
  <text x="77" y="285" text-anchor="middle" font-size="7" fill="#6e3c14">4</text>
  <text x="55" y="245" font-size="16">=&</text>

  <!-- Callout boxes -->
  <rect x="590" y="90" width="270" height="130" fill="#fff" stroke="#27ae60" stroke-width="2" rx="8"/>
  <text x="725" y="115" text-anchor="middle" font-size="13" font-weight="bold" fill="#1e8449">Drzewa li[ciaste</text>
  <text x="605" y="138" font-size="11" fill="#333">" sadzone 34 m od elewacji poBudniowej</text>
  <text x="605" y="156" font-size="11" fill="#333">" gatunki: klon, lipa, brzoza</text>
  <text x="605" y="174" font-size="11" fill="#333">" lato: cieD, redukcja zysków solarnego</text>
  <text x="605" y="192" font-size="11" fill="#333">" zima: brak li[ci ’ nasBonecznienie wntrz</text>
  <text x="605" y="210" font-size="11" fill="#333">" poprawa mikroklimatu, retencja wody</text>

  <rect x="590" y="240" width="270" height="150" fill="#fff" stroke="#a0522d" stroke-width="2" rx="8"/>
  <text x="725" y="265" text-anchor="middle" font-size="13" font-weight="bold" fill="#6e3c14">Budki lgowe</text>
  <text x="605" y="288" font-size="11" fill="#333">" min. 2 budki na ka|dy budynek</text>
  <text x="605" y="306" font-size="11" fill="#333">" monta|: 35 m wysoko[ci, elewacja E/S</text>
  <text x="605" y="324" font-size="11" fill="#333">" otwór: Ø 32 mm (sikorki), Ø 45 mm (dzierzby)</text>
  <text x="605" y="342" font-size="11" fill="#333">" materiaB: drewno li[ciaste, bez impregnacji</text>
  <text x="605" y="360" font-size="11" fill="#333">" dodatkowe budki na drzewach we wspólnych</text>
  <text x="605" y="378" font-size="11" fill="#333">  wntrzach zielonych</text>

  <!-- Season comparison -->
  <rect x="60" y="490" width="400" height="115" fill="#fff" stroke="#bdc3c7" rx="6"/>
  <text x="260" y="512" text-anchor="middle" font-size="12" font-weight="bold" fill="#333">Sezonowo[ zacienienia</text>
  <text x="80" y="535" font-size="11" fill="#27ae60" font-weight="bold">LATO:</text>
  <text x="130" y="535" font-size="11" fill="#333">gste li[cie ’ cieD na elewacji i oknach ’ mniejsze przegrzewanie (35°C wewntrz)</text>
  <text x="80" y="558" font-size="11" fill="#e67e22" font-weight="bold">ZIMA:</text>
  <text x="130" y="558" font-size="11" fill="#333">brak li[ci ’ peBne nasBonecznienie poBudniowych okien ’ pasywne ogrzewanie sBoneczne</text>
  <text x="80" y="585" font-size="11" fill="#8e44ad" font-weight="bold">BIORÓ{NORODNOZ:</text>
  <text x="200" y="585" font-size="11" fill="#333">budki lgowe wspieraj sikorki, muchoBówki, dzierzby  naturalna kontrola owadów</text>

  <rect x="480" y="490" width="360" height="115" fill="#fff" stroke="#bdc3c7" rx="6"/>
  <text x="660" y="512" text-anchor="middle" font-size="12" font-weight="bold" fill="#333">Lokalizacja budek (schemat)</text>
  <text x="500" y="538" font-size="11" fill="#333">`ab  elewacja poBudniowa / wschodnia (min. 2 na dom)</text>
  <text x="500" y="558" font-size="11" fill="#333">c  na drzewach we wspólnych wntrzach zielonych</text>
  <text x="500" y="585" font-size="11" fill="#333">Unika: strony póBnocnej i miejsc nara|onych na haBas</text>
</svg>
