<svg xmlns="http://www.w3.org/2000/svg" viewBox="0 0 820 520" font-family="DejaVu Sans, Arial, sans-serif">
  <defs>
    <marker id="arrow" markerWidth="8" markerHeight="8" refX="6" refY="3" orient="auto">
      <path d="M0,0 L6,3 L0,6 Z" fill="#555"/>
    </marker>
  </defs>
  <rect width="820" height="520" fill="#f8f6f1"/>
  <text x="410" y="34" text-anchor="middle" font-size="18" font-weight="700" fill="#1e3a5f">PoBo|enie Wojnicza w regionie</text>
  <text x="410" y="54" text-anchor="middle" font-size="11" fill="#666">woj. maBopolskie · powiat tarnowski · aglomeracja tarnowska</text>

  <!-- Region outline -->
  <rect x="60" y="80" width="700" height="380" rx="12" fill="#eef3ea" stroke="#9bb58a" stroke-width="2"/>
  <text x="80" y="105" font-size="11" fill="#4a7c59" font-weight="600">MaBopolska PoBudniowo-Wschodnia</text>

  <!-- A4 motorway -->
  <path d="M120 140 H700" stroke="#e67e22" stroke-width="10" stroke-linecap="round"/>
  <text x="410" y="132" text-anchor="middle" font-size="12" font-weight="700" fill="#c45c26">A4 (E40)</text>

  <!-- DK 94 -->
  <path d="M180 170 C260 210, 340 250, 420 290 S580 360, 660 400" fill="none" stroke="#d35400" stroke-width="6" stroke-linecap="round"/>
  <text x="500" y="350" font-size="12" font-weight="700" fill="#c45c26">DK 94</text>

  <!-- Dunajec -->
  <path d="M500 120 C470 200, 450 280, 430 420" fill="none" stroke="#3498db" stroke-width="5"/>
  <text x="455" y="250" font-size="11" fill="#2980b9" transform="rotate(-80 455 250)">Dunajec</text>

  <!-- Cities -->
  <circle cx="220" cy="200" r="28" fill="#fff" stroke="#1e3a5f" stroke-width="2"/>
  <text x="220" y="195" text-anchor="middle" font-size="11" font-weight="700" fill="#1e3a5f">Kraków</text>
  <text x="220" y="210" text-anchor="middle" font-size="9" fill="#666">~80 km</text>

  <circle cx="300" cy="250" r="24" fill="#fff" stroke="#1e3a5f" stroke-width="2"/>
  <text x="300" y="255" text-anchor="middle" font-size="11" font-weight="700" fill="#1e3a5f">Tarnów</text>
  <text x="300" y="268" text-anchor="middle" font-size="9" fill="#666">~15 km</text>

  <circle cx="420" cy="300" r="34" fill="#1e3a5f" stroke="#0f2744" stroke-width="3"/>
  <text x="420" y="295" text-anchor="middle" font-size="13" font-weight="700" fill="#fff">WOJNICZ</text>
  <text x="420" y="312" text-anchor="middle" font-size="9" fill="#dbeafe">3141 mieszk.</text>

  <circle cx="560" cy="360" r="22" fill="#fff" stroke="#1e3a5f" stroke-width="2"/>
  <text x="560" y="355" text-anchor="middle" font-size="10" font-weight="700" fill="#1e3a5f">Brzesko</text>
  <text x="560" y="368" text-anchor="middle" font-size="9" fill="#666">~12 km</text>

  <circle cx="640" cy="420" r="26" fill="#fff" stroke="#1e3a5f" stroke-width="2"/>
  <text x="640" y="415" text-anchor="middle" font-size="10" font-weight="700" fill="#1e3a5f">Nowy Scz</text>
  <text x="640" y="428" text-anchor="middle" font-size="9" fill="#666">~45 km</text>

  <!-- WzeB -->
  <rect x="350" y="155" width="120" height="28" rx="6" fill="#fff3e0" stroke="#e67e22"/>
  <text x="410" y="174" text-anchor="middle" font-size="10" fill="#c45c26">WzeB A4 WierzchosBawice</text>

  <!-- Distance arrows -->
  <line x1="330" y1="260" x2="390" y2="290" stroke="#555" stroke-width="1.5" marker-end="url(#arrow)"/>
  <text x="345" y="268" font-size="9" fill="#555">15 km</text>

  <!-- Legend -->
  <rect x="80" y="400" width="220" height="48" rx="6" fill="#fff" stroke="#ccc"/>
  <line x1="95" y1="418" x2="125" y2="418" stroke="#e67e22" stroke-width="5"/>
  <text x="135" y="422" font-size="10" fill="#333">autostrada A4</text>
  <line x1="95" y1="436" x2="125" y2="436" stroke="#d35400" stroke-width="4"/>
  <text x="135" y="440" font-size="10" fill="#333">droga krajowa 94</text>

  <text x="410" y="495" text-anchor="middle" font-size="10" fill="#888">Schemat orientacyjny  nie stanowi mapy topograficznej</text>
</svg>
